<?xml version="1.0" encoding="UTF-8"?>
<!DOCTYPE svg PUBLIC "-//W3C//DTD SVG 1.1//EN" "http://www.w3.org/Graphics/SVG/1.1/DTD/svg11.dtd">
<!-- Creator: CorelDRAW 2020 (64-Bit) -->
<svg xmlns="http://www.w3.org/2000/svg" xml:space="preserve" width="25.4mm" height="12.7mm" version="1.1" style="shape-rendering:geometricPrecision; text-rendering:geometricPrecision; image-rendering:optimizeQuality; fill-rule:evenodd; clip-rule:evenodd"
viewBox="0 0 2540 1270"
 xmlns:xlink="http://www.w3.org/1999/xlink"
 xmlns:xodm="http://www.corel.com/coreldraw/odm/2003">
 <defs>
  <style type="text/css">
   <![CDATA[
    .fil0 {fill:#898989;fill-rule:nonzero}
   ]]>
  </style>
 </defs>
 <g id="Layer_x0020_1">
  <metadata id="CorelCorpID_0Corel-Layer"/>
  <path class="fil0" d="M913.37 652.71l36.95 9.34c-7.71,30.28 -21.59,53.29 -41.62,69.18 -20.03,15.88 -44.54,23.86 -73.52,23.86 -29.96,0 -54.33,-6.1 -73.14,-18.35 -18.8,-12.19 -33.06,-29.89 -42.85,-53.04 -9.79,-23.21 -14.72,-48.04 -14.72,-74.62 0,-28.98 5.51,-54.27 16.6,-75.86 11.09,-21.59 26.84,-37.99 47.26,-49.21 20.43,-11.21 42.92,-16.79 67.43,-16.79 27.88,0 51.29,7.07 70.22,21.27 18.99,14.2 32.22,34.1 39.68,59.77l-36.18 8.56c-6.42,-20.23 -15.82,-35.01 -28.07,-44.21 -12.26,-9.28 -27.69,-13.88 -46.3,-13.88 -21.33,0 -39.22,5.12 -53.55,15.37 -14.33,10.24 -24.44,24.05 -30.21,41.3 -5.84,17.31 -8.76,35.14 -8.76,53.49 0,23.66 3.44,44.34 10.31,61.98 6.87,17.7 17.57,30.86 32.1,39.61 14.52,8.75 30.21,13.1 47.13,13.1 20.62,0 37.99,-5.97 52.26,-17.83 14.26,-11.93 23.92,-29.57 28.98,-53.04zm114.61 97.71l106.84 -278.53 40.53 0 113.39 278.53 -41.95 0 -32.22 -84.42 -117.28 0 -30.22 84.42 -39.09 0zm80.13 -114.37l94.92 0 -29.05 -77.22c-8.75,-23.47 -15.36,-42.85 -19.96,-58.15 -3.83,18.15 -8.95,35.98 -15.37,53.61l-30.54 81.76zm273.26 114.37l0 -278.53 123.45 0c24.83,0 43.7,2.53 56.6,7.52 12.9,4.99 23.21,13.81 30.92,26.45 7.72,12.65 11.55,26.65 11.55,41.95 0,19.78 -6.42,36.44 -19.2,49.99 -12.77,13.55 -32.48,22.11 -59.19,25.8 9.79,4.67 17.18,9.34 22.24,13.88 10.76,9.85 20.94,22.24 30.47,37.08l48.17 75.86 -46.03 0 -36.83 -57.96c-10.69,-16.79 -19.58,-29.57 -26.51,-38.45 -7.01,-8.88 -13.23,-15.04 -18.74,-18.61 -5.45,-3.5 -11.09,-5.96 -16.79,-7.39 -4.15,-0.84 -10.96,-1.3 -20.49,-1.3l-42.66 0 0 123.71 -36.96 0zm36.96 -155.6l79.1 0c16.85,0 29.95,-1.75 39.42,-5.26 9.46,-3.43 16.66,-9.01 21.52,-16.72 4.93,-7.65 7.39,-15.95 7.39,-24.96 0,-13.17 -4.73,-24.06 -14.26,-32.55 -9.53,-8.5 -24.57,-12.71 -45.13,-12.71l-88.04 0 0 92.2zm293.74 66.13l34.63 -3.11c1.62,14 5.44,25.48 11.47,34.49 6.03,8.95 15.37,16.21 28.01,21.78 12.64,5.51 26.91,8.3 42.73,8.3 14.07,0 26.45,-2.07 37.21,-6.29 10.77,-4.21 18.74,-9.98 23.99,-17.31 5.25,-7.33 7.91,-15.3 7.91,-23.86 0,-8.69 -2.53,-16.27 -7.58,-22.82 -5.06,-6.48 -13.43,-11.93 -25.1,-16.4 -7.45,-2.86 -23.98,-7.39 -49.59,-13.55 -25.61,-6.16 -43.51,-11.93 -53.75,-17.38 -13.29,-7 -23.15,-15.69 -29.63,-26 -6.55,-10.31 -9.79,-21.91 -9.79,-34.68 0,-14.14 4.02,-27.3 11.99,-39.49 7.98,-12.25 19.58,-21.52 34.95,-27.88 15.3,-6.35 32.35,-9.53 51.09,-9.53 20.62,0 38.83,3.31 54.59,9.99 15.75,6.61 27.88,16.4 36.37,29.37 8.5,12.9 13.03,27.55 13.68,43.89l-35.4 2.72c-1.88,-17.57 -8.3,-30.86 -19.25,-39.81 -10.96,-9.01 -27.17,-13.48 -48.57,-13.48 -22.3,0 -38.57,4.08 -48.75,12.25 -10.18,8.17 -15.3,18.03 -15.3,29.57 0,9.98 3.63,18.21 10.83,24.7 7.13,6.42 25.6,13.09 55.56,19.84 29.95,6.81 50.51,12.71 61.66,17.76 16.14,7.46 28.14,16.86 35.85,28.34 7.72,11.41 11.54,24.57 11.54,39.48 0,14.85 -4.21,28.72 -12.71,41.82 -8.49,13.1 -20.61,23.27 -36.5,30.54 -15.88,7.26 -33.71,10.89 -53.62,10.89 -25.15,0 -46.22,-3.7 -63.21,-11.02 -17.05,-7.33 -30.34,-18.35 -40,-33.13 -9.73,-14.72 -14.79,-31.38 -15.31,-49.99z"/>
 </g>
</svg>
